# This file uses centimeters as units for non-parametric coordinates.

v -0.102174 1.532288 -4.133094
v -3.669918 1.340744 -2.043239
v -3.645672 1.325531 2.095870
v -0.053674 1.501862 4.145138
v 3.514074 1.693405 2.055297
v 3.489819 1.708618 -2.083830
v -0.183826 3.355942 -2.006341
v -1.924654 3.262482 -0.986601
v -1.912834 3.255051 1.033013
v -0.160170 3.341095 2.032912
v 1.580688 3.434570 1.013220
v 1.568848 3.442001 -1.006424
v 0.000000 0.000000 0.000000
v 0.070436 4.700760 0.348284
v -1.272587 3.183914 -4.901451
v -3.547970 3.268158 -3.682606
v -3.572864 3.085114 3.695198
v -1.718548 3.256714 4.793694
v 4.702287 3.836029 1.149887
v 4.472786 3.227448 -0.565876
v 3.477921 3.927887 -0.650694
v -4.700204 3.214661 -1.482331
v -4.789631 3.093201 2.001579
v -3.911614 3.907257 1.699238
v -3.945367 4.113632 -1.201186
v 1.365965 3.466187 4.430158
v 3.067017 3.518188 3.410650
v 3.738239 2.935089 -2.777741
v 1.024000 2.950821 -4.859771
v 2.848504 4.049515 -2.183737
v 2.148632 4.396561 -3.735800
v 3.013794 3.329239 -4.626915
v -5.610629 3.273010 0.297604
v 3.380887 4.158325 0.685706
vt 0.138759 0.399721
vt 0.138759 0.399720
vt 0.138759 0.399721
vt 0.138759 0.399720
vt 0.138759 0.399721
vt 0.138759 0.399720
vt 0.138759 0.399721
vt 0.138759 0.399721
vt 0.138759 0.399721
vt 0.138759 0.399721
vt 0.138759 0.399721
vt 0.138759 0.399721
vt 0.138759 0.399721
vt 0.138759 0.447392
vt 0.138759 0.399721
vt 0.138759 0.447392
vt 0.138759 0.399721
vt 0.138759 0.399721
vt 0.138759 0.399721
vt 0.138759 0.447392
vt 0.138759 0.447392
vt 0.138759 0.447392
vt 0.138759 0.447392
vt 0.138759 0.447392
vt 0.138759 0.447392
vt 0.138759 0.447392
vt 0.138759 0.399721
vt 0.138759 0.447392
vt 0.138759 0.399721
vt 0.138759 0.399721
vt 0.138759 0.447392
vt 0.138759 0.399721
vt 0.138759 0.399721
vt 0.138759 0.447392
vt 0.138759 0.399721
vt 0.138759 0.399721
vt 0.138759 0.399721
vt 0.138759 0.399721
vt 0.138759 0.399721
vt 0.138759 0.447392
vt 0.138759 0.399721
vt 0.138759 0.399721
vt 0.138759 0.399721
vt 0.138759 0.399721
vt 0.138759 0.399721
vt 0.138759 0.399721
vt 0.138759 0.447392
vt 0.138759 0.447392
vt 0.138759 0.447392
vt 0.138759 0.447392
vt 0.138759 0.447392
vt 0.138759 0.399721
vt 0.138759 0.399721
vt 0.138759 0.447392
vt 0.138759 0.399721
vt 0.138759 0.447392
vt 0.138759 0.447392
vt 0.138759 0.447392
vt 0.138759 0.447392
vt 0.138759 0.447392
vt 0.138759 0.399721
vt 0.138759 0.447392
vt 0.138759 0.447392
vt 0.138759 0.447392
vt 0.138759 0.447392
vt 0.138759 0.447392
vt 0.138759 0.447392
vt 0.138759 0.447392
vt 0.138759 0.447392
vt 0.138759 0.447392
vt 0.138759 0.447392
vt 0.138759 0.447392
vt 0.138759 0.447392
vt 0.138759 0.447392
vt 0.138759 0.399721
vt 0.138759 0.399721
vt 0.138759 0.399721
vt 0.138759 0.447392
vt 0.138759 0.399721
vn -0.657004 0.663566 -0.357806
vn -0.480165 0.869302 0.117285
vn -0.528458 0.848659 0.022570
vn 0.165207 0.535658 -0.828117
vn 0.254315 0.659540 -0.707340
vn 0.275645 0.687328 -0.672011
vn 0.165207 0.535658 -0.828117
vn 0.582140 0.736511 -0.344478
vn 0.537543 0.744686 -0.395589
vn -0.028163 0.627092 -0.778436
vn -0.149587 -0.928287 -0.340452
vn -0.149587 -0.928287 -0.340452
vn -0.149587 -0.928287 -0.340452
vn -0.342439 -0.939539 -0.001447
vn -0.342439 -0.939539 -0.001447
vn -0.342439 -0.939539 -0.001447
vn -0.145629 -0.930770 0.335350
vn -0.145629 -0.930770 0.335350
vn -0.145629 -0.930770 0.335350
vn 0.244036 -0.910749 0.333141
vn 0.244036 -0.910749 0.333141
vn 0.244036 -0.910749 0.333141
vn 0.436891 -0.899495 -0.005866
vn 0.436891 -0.899495 -0.005866
vn 0.436891 -0.899495 -0.005866
vn 0.240078 -0.908265 -0.342662
vn 0.240078 -0.908265 -0.342662
vn 0.240078 -0.908265 -0.342662
vn -0.306855 0.840351 -0.446822
vn -0.306855 0.840351 -0.446822
vn -0.306855 0.840351 -0.446822
vn -0.587599 0.809127 0.006416
vn -0.587599 0.809127 0.006416
vn -0.587599 0.809127 0.006416
vn -0.354799 0.750683 0.557309
vn -0.354799 0.750683 0.557309
vn -0.354799 0.750683 0.557309
vn 0.325126 0.713643 0.620488
vn 0.325126 0.713643 0.620488
vn 0.325126 0.713643 0.620488
vn 0.642717 0.766104 -0.000949
vn 0.642717 0.766104 -0.000949
vn 0.642717 0.766103 -0.000949
vn 0.244859 0.830295 -0.500655
vn 0.244859 0.830295 -0.500655
vn 0.244859 0.830295 -0.500655
vn -0.389641 -0.589919 -0.707231
vn -0.389641 -0.589919 -0.707231
vn -0.389641 -0.589919 -0.707231
vn -0.389641 -0.589919 -0.707231
vn -0.767803 0.442590 0.463241
vn -0.767803 0.442590 0.463241
vn -0.767803 0.442590 0.463241
vn -0.014855 0.999636 -0.022536
vn -0.014855 0.999636 -0.022536
vn -0.014855 0.999636 -0.022536
vn -0.014855 0.999636 -0.022536
vn 0.834697 0.433487 -0.339661
vn 0.834697 0.433487 -0.339661
vn 0.834697 0.433487 -0.339661
vn -0.365470 -0.613381 0.700140
vn -0.365470 -0.613381 0.700140
vn -0.365470 -0.613380 0.700140
vn -0.365470 -0.613380 0.700140
vn 0.729330 0.533755 0.427999
vn 0.729330 0.533755 0.427999
vn 0.729330 0.533755 0.427999
vn -0.073180 0.997313 0.003340
vn -0.073180 0.997313 0.003340
vn -0.073180 0.997313 0.003340
vn -0.073180 0.997313 0.003340
vn -0.772712 0.444153 -0.453480
vn -0.772712 0.444153 -0.453480
vn -0.772712 0.444153 -0.453480
vn 0.858976 -0.511807 0.014641
vn 0.858976 -0.511807 0.014641
vn 0.858975 -0.511807 0.014641
vn 0.858975 -0.511807 0.014641
vn -0.308776 0.948491 -0.070865
vn -0.308776 0.948491 -0.070865
vn -0.308776 0.948491 -0.070865
vn -0.308776 0.948491 -0.070865
vn -0.785497 -0.618509 -0.020995
vn -0.785497 -0.618509 -0.020995
vn -0.785497 -0.618509 -0.020995
vn -0.785497 -0.618509 -0.020995
vn -0.785497 -0.618509 -0.020995
vn 0.305275 0.175244 0.936000
vn 0.305275 0.175244 0.936000
vn 0.305275 0.175244 0.936000
vn 0.305275 0.175244 0.936000
vn 0.353749 0.934595 0.037337
vn 0.353749 0.934595 0.037337
vn 0.353749 0.934595 0.037337
vn 0.353749 0.934595 0.037337
vn 0.162608 0.301458 -0.939511
vn 0.162608 0.301458 -0.939511
vn 0.162609 0.301458 -0.939511
vn 0.162608 0.301458 -0.939511
vn 0.469320 -0.449506 0.760055
vn 0.469320 -0.449505 0.760055
vn 0.469320 -0.449506 0.760055
vn 0.469320 -0.449505 0.760055
vn 0.717804 0.519858 -0.463147
vn 0.717804 0.519858 -0.463147
vn 0.717804 0.519858 -0.463147
vn -0.049530 0.998696 -0.012353
vn -0.049530 0.998696 -0.012353
vn -0.049530 0.998696 -0.012353
vn -0.049530 0.998696 -0.012353
vn -0.752157 0.477730 0.453909
vn -0.752157 0.477730 0.453909
vn -0.752157 0.477730 0.453909
vn 0.407656 -0.693126 -0.594469
vn 0.407656 -0.693126 -0.594469
vn 0.407656 -0.693126 -0.594469
vn 0.407656 -0.693126 -0.594469
vn 0.407656 -0.693126 -0.594469
vn -0.700163 0.603191 -0.382011
vn -0.700163 0.603191 -0.382011
vn -0.700163 0.603191 -0.382011
vn -0.700163 0.603191 -0.382011
vn -0.197734 0.937631 0.285919
vn -0.197734 0.937631 0.285919
vn -0.197734 0.937631 0.285919
vn -0.197734 0.937631 0.285919
vn 0.647330 0.208631 0.733101
vn 0.647330 0.208631 0.733101
vn 0.647330 0.208631 0.733101
vn 0.647330 0.208631 0.733101
vn 0.717043 0.680246 -0.152033
vn 0.537543 0.744686 -0.395589
vn 0.582140 0.736511 -0.344478
vn 0.717043 0.680246 -0.152033
vn -0.528458 0.848659 0.022570
vn -0.480165 0.869302 0.117285
vn -0.457269 0.875129 0.158286
vn -0.457269 0.875129 0.158286
vn 0.062496 0.722338 0.688711
vn 0.275645 0.687328 -0.672011
vn 0.254315 0.659540 -0.707340
vn 0.048160 0.703937 0.708628
vn -0.099800 0.479144 0.872044
vn -0.099800 0.479144 0.872044
vn 0.062496 0.722338 0.688711
vn 0.048160 0.703937 0.708628
s off
f 22/38/1 33/77/2 25/41/3
f 12/19/4 21/37/5 20/36/6 6/12/7
f 31/75/8 32/76/9 29/45/10
f 2/2/11 1/1/12 13/27/13
f 3/3/14 2/2/15 13/27/16
f 4/4/17 3/3/18 13/27/19
f 5/5/20 4/4/21 13/27/22
f 6/6/23 5/5/24 13/27/25
f 1/1/26 6/6/27 13/27/28
f 7/51/29 8/24/30 14/72/31
f 8/57/32 9/23/33 14/71/34
f 9/59/35 10/22/36 14/70/37
f 10/67/38 11/21/39 14/69/40
f 11/63/41 12/26/42 14/28/43
f 12/49/44 7/25/45 14/73/46
f 1/7/47 2/8/48 16/30/49 15/29/50
f 2/8/51 8/15/52 16/30/53
f 8/56/54 7/14/55 15/68/56 16/31/57
f 7/52/58 1/7/59 15/29/60
f 3/9/61 4/10/62 18/33/63 17/32/64
f 4/10/65 10/17/66 18/33/67
f 10/66/68 9/60/69 17/65/70 18/34/71
f 9/61/72 3/9/73 17/32/74
f 5/11/75 6/12/76 20/36/77 19/35/78
f 12/48/79 11/64/80 34/78/81 21/62/82
f 2/8/83 3/9/84 23/39/85 33/77/86 22/38/87
f 3/9/88 9/61/89 24/55/90 23/39/91
f 9/16/92 8/58/93 25/54/94 24/40/95
f 8/15/96 2/8/97 22/38/98 25/41/99
f 4/10/100 5/11/101 27/43/102 26/42/103
f 5/11/104 11/18/105 27/43/106
f 11/18/107 10/17/108 26/42/109 27/43/110
f 10/17/111 4/10/112 26/42/113
f 6/12/114 1/13/115 29/45/116 32/76/117 28/44/118
f 1/13/119 7/53/120 31/75/121 29/45/122
f 7/20/123 12/50/124 30/47/125 31/74/126
f 12/19/127 6/12/128 28/44/129 30/46/130
f 28/44/131 32/76/132 31/75/133 30/46/134
f 25/41/135 33/77/136 23/39/137 24/55/138
f 19/35/139 20/36/140 21/37/141 34/79/142
f 11/18/143 5/11/144 19/35/145 34/79/146
