# This file uses centimeters as units for non-parametric coordinates.

v -2.312104 0.000000 5.322366
v 2.312104 0.000000 5.322366
v -2.312104 2.234569 5.322366
v 2.312104 2.234569 5.322366
v -2.312104 2.234569 -7.430070
v 2.312104 2.234569 -7.430070
v -2.312104 0.000000 -7.430070
v 2.312104 0.000000 -7.430070
v -1.711918 0.520746 5.322366
v 1.711918 0.520746 5.322366
v 1.711918 1.713822 5.322366
v -1.711918 1.713822 5.322366
v -1.711918 0.520746 8.414145
v 1.711918 0.520746 8.414145
v 1.711918 1.713822 8.414145
v -1.711918 1.713822 8.414145
v -1.425270 1.055763 8.414145
v 1.425270 1.055763 8.414145
v 1.425270 1.471032 8.414145
v -1.425270 1.471032 8.414145
v -1.619660 2.234569 -8.414145
v 1.619660 2.234569 -8.414145
v 1.619660 0.000000 -8.414145
v -1.619660 0.000000 -8.414145
v -2.312104 0.000000 3.402066
v -2.312104 2.234569 3.402066
v 2.312104 2.234569 3.402066
v 2.312104 0.000000 3.402066
v -1.296683 1.713822 6.315909
v 1.296683 1.713822 6.315909
v -1.296683 1.713822 7.036631
v 1.296683 1.713822 7.036631
v -0.518673 1.713822 6.315909
v 0.518673 1.713822 6.315909
v -0.518673 1.713822 7.036631
v 0.518673 1.713822 7.036631
v -1.655253 2.234569 2.813510
v 1.655253 2.234569 2.813510
v 1.655253 2.234569 -6.841514
v -1.655253 2.234569 -6.841514
v -0.934845 1.995761 2.076080
v 0.934845 1.995761 2.076080
v 0.934845 1.995761 -6.104084
v -0.934845 1.995761 -6.104084
vt 0.134594 0.300541
vt 0.134594 0.300541
vt 0.134594 0.300541
vt 0.134594 0.300541
vt 0.081258 0.271873
vt 0.081258 0.271873
vt 0.081258 0.271873
vt 0.081258 0.271873
vt 0.134594 0.300541
vt 0.134594 0.300541
vt 0.081258 0.271873
vt 0.081258 0.271873
vt 0.081258 0.271873
vt 0.081258 0.271873
vt 0.134594 0.300541
vt 0.134594 0.300541
vt 0.134594 0.300541
vt 0.134594 0.300541
vt 0.134594 0.300541
vt 0.134594 0.300541
vt 0.134594 0.300541
vt 0.134594 0.300541
vt 0.134594 0.300541
vt 0.134594 0.300541
vt 0.134594 0.300541
vt 0.134594 0.300541
vt 0.081258 0.271873
vt 0.081258 0.271873
vt 0.081258 0.271873
vt 0.081258 0.271873
vt 0.134594 0.300541
vt 0.134594 0.300541
vt 0.079257 0.229871
vt 0.079257 0.229871
vt 0.079257 0.229871
vt 0.079257 0.229871
vt 0.134594 0.300541
vt 0.134594 0.300541
vt 0.134594 0.300541
vt 0.134594 0.300541
vt 0.134594 0.300541
vt 0.134594 0.300541
vt 0.134594 0.300541
vt 0.134594 0.300541
vt 0.081258 0.229204
vt 0.081258 0.229204
vt 0.081258 0.229204
vt 0.081258 0.229204
vt 0.081258 0.229204
vt 0.081258 0.229204
vt 0.081258 0.229204
vt 0.081258 0.229204
vt 0.081258 0.271873
vt 0.081258 0.271873
vt 0.081258 0.271873
vt 0.081258 0.271873
vt 0.081258 0.271873
vt 0.081258 0.271873
vt 0.081258 0.271873
vt 0.081258 0.271873
vn 0.000000 0.000000 1.000000
vn 0.000000 0.000000 1.000000
vn 0.000000 0.000000 1.000000
vn 0.000000 0.000000 1.000000
vn 0.000000 1.000000 0.000000
vn 0.000000 1.000000 0.000000
vn 0.000000 1.000000 0.000000
vn 0.000000 1.000000 0.000000
vn 0.000000 0.000000 -1.000000
vn 0.000000 0.000000 -1.000000
vn 0.000000 0.000000 -1.000000
vn 0.000000 0.000000 -1.000000
vn 0.000000 -1.000000 0.000000
vn 0.000000 -1.000000 0.000000
vn 0.000000 -1.000000 0.000000
vn 0.000000 -1.000000 0.000000
vn 1.000000 0.000000 0.000000
vn 1.000000 0.000000 0.000000
vn 1.000000 0.000000 0.000000
vn 1.000000 0.000000 0.000000
vn -1.000000 0.000000 0.000000
vn -1.000000 0.000000 0.000000
vn -1.000000 0.000000 0.000000
vn -1.000000 0.000000 0.000000
vn 0.000000 0.000000 1.000000
vn 0.000000 0.000000 1.000000
vn 0.000000 0.000000 1.000000
vn 0.000000 0.000000 1.000000
vn -0.000000 0.000000 1.000000
vn -0.000000 0.000000 1.000000
vn -0.000000 0.000000 1.000000
vn -0.000000 0.000000 1.000000
vn 0.000000 0.000000 1.000000
vn 0.000000 0.000000 1.000000
vn 0.000000 0.000000 1.000000
vn 0.000000 0.000000 1.000000
vn 0.000001 0.000000 1.000000
vn 0.000001 0.000000 1.000000
vn 0.000001 0.000000 1.000000
vn 0.000001 0.000000 1.000000
vn 0.000000 -1.000000 0.000000
vn 0.000000 -1.000000 0.000000
vn 0.000000 -1.000000 0.000000
vn 0.000000 -1.000000 0.000000
vn 1.000000 0.000000 0.000000
vn 1.000000 0.000000 0.000000
vn 1.000000 0.000000 0.000000
vn 1.000000 0.000000 0.000000
vn 0.000000 1.000000 0.000000
vn 0.000000 1.000000 0.000000
vn 0.000000 1.000000 0.000000
vn 0.000000 1.000000 0.000000
vn -1.000000 0.000000 0.000000
vn -1.000000 0.000000 0.000000
vn -1.000000 0.000000 0.000000
vn -1.000000 0.000000 0.000000
vn 0.000000 0.000000 1.000000
vn 0.000000 0.000000 1.000000
vn 0.000000 0.000000 1.000000
vn 0.000000 0.000000 1.000000
vn -0.000002 0.000000 1.000000
vn -0.000002 0.000000 1.000000
vn -0.000002 0.000000 1.000000
vn -0.000002 0.000000 1.000000
vn 0.000000 0.000000 1.000000
vn 0.000000 0.000000 1.000000
vn 0.000000 0.000000 1.000000
vn 0.000000 0.000000 1.000000
vn 0.000003 0.000000 1.000000
vn 0.000003 0.000000 1.000000
vn 0.000003 0.000000 1.000000
vn 0.000003 0.000000 1.000000
vn 0.000000 1.000000 0.000000
vn 0.000000 1.000000 0.000000
vn 0.000000 1.000000 0.000000
vn 0.000000 1.000000 0.000000
vn 0.817827 0.000000 -0.575464
vn 0.817827 0.000000 -0.575464
vn 0.817827 0.000000 -0.575464
vn 0.817827 0.000000 -0.575464
vn 0.000000 -1.000000 0.000000
vn 0.000000 -1.000000 0.000000
vn 0.000000 -1.000000 0.000000
vn 0.000000 -1.000000 0.000000
vn -0.817827 0.000000 -0.575464
vn -0.817827 0.000000 -0.575464
vn -0.817827 0.000000 -0.575464
vn -0.817827 0.000000 -0.575464
vn -1.000000 0.000000 -0.000000
vn -1.000000 0.000000 -0.000000
vn -1.000000 0.000000 -0.000000
vn -1.000000 0.000000 -0.000000
vn 0.000000 1.000000 0.000000
vn 0.000000 1.000000 0.000000
vn 0.000000 1.000000 0.000000
vn 0.000000 1.000000 0.000000
vn 1.000000 0.000000 -0.000000
vn 1.000000 0.000000 -0.000000
vn 1.000000 0.000000 -0.000000
vn 1.000000 0.000000 -0.000000
vn 0.000000 -1.000000 0.000000
vn 0.000000 -1.000000 0.000000
vn 0.000000 -1.000000 0.000000
vn 0.000000 -1.000000 0.000000
vn 0.000000 1.000000 0.000000
vn 0.000000 1.000000 0.000000
vn 0.000000 1.000000 0.000000
vn 0.000000 1.000000 0.000000
vn 0.000000 1.000000 0.000000
vn 0.000000 1.000000 0.000000
vn 0.000000 1.000000 0.000000
vn 0.000000 1.000000 0.000000
vn 0.000000 1.000000 0.000000
vn 0.000000 1.000000 0.000000
vn 0.000000 1.000000 -0.000000
vn 0.000000 1.000000 -0.000000
vn 0.000000 1.000000 -0.000000
vn 0.000000 1.000000 -0.000000
vn 0.000000 1.000000 -0.000000
vn 0.000000 1.000000 -0.000000
vn 0.000000 1.000000 0.000000
vn 0.000000 1.000000 0.000000
vn 0.000000 1.000000 0.000000
vn 0.000000 1.000000 0.000000
vn 0.000000 1.000000 0.000000
vn 0.000000 1.000000 0.000000
vn 0.000000 1.000000 0.000000
vn 0.000000 1.000000 0.000000
vn 0.000000 1.000000 0.000000
vn 0.000000 1.000000 0.000000
vn 0.000000 1.000000 0.000000
vn 0.000000 1.000000 0.000000
vn 0.000000 1.000000 0.000000
vn 0.000000 1.000000 0.000000
vn 0.000000 1.000000 0.000000
vn 0.000000 1.000000 0.000000
vn 0.000000 1.000000 0.000000
vn 0.000000 1.000000 0.000000
vn 0.000000 1.000000 0.000000
vn 0.000000 1.000000 0.000000
vn 0.000000 1.000000 -0.000000
vn 0.000000 1.000000 -0.000000
vn 0.000000 1.000000 -0.000000
vn 0.000000 1.000000 -0.000000
vn 0.000000 1.000000 0.000000
vn 0.000000 1.000000 0.000000
vn 0.000000 1.000000 0.000000
vn 0.000000 1.000000 0.000000
vn 0.000000 0.951358 -0.308087
vn 0.000000 0.951358 -0.308087
vn 0.000000 0.951358 -0.308087
vn 0.000000 0.951358 -0.308087
vn -0.314653 0.949207 0.000000
vn -0.314653 0.949207 0.000000
vn -0.314653 0.949207 0.000000
vn -0.314653 0.949207 0.000000
vn 0.000000 0.951358 0.308087
vn 0.000000 0.951358 0.308087
vn 0.000000 0.951358 0.308087
vn 0.000000 0.951358 0.308087
vn 0.314653 0.949207 0.000000
vn 0.314653 0.949207 0.000000
vn 0.314653 0.949207 0.000000
vn 0.314653 0.949207 0.000000
s off
f 17/33/1 18/34/2 19/35/3 20/36/4
f 41/57/5 42/58/6 43/59/7 44/60/8
f 21/11/9 22/12/10 23/13/11 24/14/12
f 7/27/13 8/28/14 28/29/15 25/30/16
f 27/6/17 28/29/18 8/28/19 6/7/20
f 7/27/21 25/30/22 26/5/23 5/8/24
f 1/9/25 2/10/26 10/15/27 9/16/28
f 2/10/29 4/17/30 11/18/31 10/15/32
f 4/17/33 3/19/34 12/20/35 11/18/36
f 3/19/37 1/9/38 9/16/39 12/20/40
f 9/16/41 10/15/42 14/21/43 13/22/44
f 10/15/45 11/18/46 15/23/47 14/21/48
f 30/45/49 34/46/50 36/47/51 32/48/52
f 12/20/53 9/16/54 13/22/55 16/24/56
f 13/22/57 14/21/58 18/2/59 17/1/60
f 14/21/61 15/23/62 19/3/63 18/2/64
f 15/23/65 16/24/66 20/4/67 19/3/68
f 16/24/69 13/22/70 17/1/71 20/4/72
f 5/8/73 6/7/74 22/12/75 21/11/76
f 6/7/77 8/28/78 23/13/79 22/12/80
f 8/28/81 7/27/82 24/14/83 23/13/84
f 7/27/85 5/8/86 21/11/87 24/14/88
f 26/25/89 25/26/90 1/9/91 3/19/92
f 3/19/93 4/17/94 27/31/95 26/25/96
f 2/10/97 28/32/98 27/31/99 4/17/100
f 25/26/101 28/32/102 2/10/103 1/9/104
f 11/18/105 12/20/106 29/38/107 33/41/108 34/42/109 30/37/110
f 12/20/111 16/24/112 31/39/113 29/38/114
f 16/24/115 15/23/116 32/40/117 36/44/118 35/43/119 31/39/120
f 15/23/121 11/18/122 30/37/123 32/40/124
f 35/49/125 33/50/126 29/51/127 31/52/128
f 36/44/129 34/42/130 33/41/131 35/43/132
f 26/5/133 27/6/134 38/54/135 37/53/136
f 27/6/137 6/7/138 39/55/139 38/54/140
f 6/7/141 5/8/142 40/56/143 39/55/144
f 5/8/145 26/5/146 37/53/147 40/56/148
f 37/53/149 38/54/150 42/58/151 41/57/152
f 38/54/153 39/55/154 43/59/155 42/58/156
f 39/55/157 40/56/158 44/60/159 43/59/160
f 40/56/161 37/53/162 41/57/163 44/60/164
