# This file uses centimeters as units for non-parametric coordinates.

v 0.459019 0.795042 -7.486704
v -0.459019 0.795043 -7.486704
v -0.918037 0.000000 -7.486704
v -0.459019 -0.795042 -7.486704
v 0.459019 -0.795042 -7.486704
v 0.918037 0.000000 -7.486704
v 0.459019 0.795042 7.486704
v -0.459019 0.795043 7.486704
v -0.918037 0.000000 7.486704
v -0.459019 -0.795042 7.486704
v 0.459019 -0.795042 7.486704
v 0.918037 -0.000000 7.486704
v 0.000000 0.000000 -7.486704
v 0.000000 -0.000000 7.486704
v 0.918037 0.000000 -2.680091
v 0.459019 0.795042 -2.680091
v -0.459019 0.795042 -2.680091
v -0.918037 0.000000 -2.680091
v -0.459019 -0.795042 -2.680091
v 0.459019 -0.795042 -2.680091
v -0.459019 -0.795042 -1.119955
v -0.918037 0.000000 -1.119955
v -0.459019 0.795042 -1.119955
v 0.459019 0.795042 -1.119955
v 0.918037 0.000000 -1.119955
v 0.459019 -0.795042 -1.119955
vt 0.360395 0.012667
vt 0.360395 0.012667
vt 0.360395 0.012667
vt 0.360395 0.012667
vt 0.360395 0.012667
vt 0.360395 0.012667
vt 0.176767 0.453202
vt 0.176767 0.453203
vt 0.176767 0.453203
vt 0.176767 0.453202
vt 0.176767 0.453203
vt 0.176767 0.453203
vt 0.176767 0.453202
vt 0.357862 0.010541
vt 0.357862 0.010541
vt 0.085806 0.230022
vt 0.357862 0.010541
vt 0.357862 0.010541
vt 0.357862 0.010541
vt 0.357862 0.010541
vt 0.357862 0.010541
vt 0.357862 0.010541
vt 0.357862 0.010541
vt 0.357862 0.010541
vt 0.357862 0.010541
vt 0.357862 0.010541
vt 0.360395 0.012667
vt 0.417686 0.008627
vt 0.176767 0.453202
vt 0.176767 0.453202
vt 0.176767 0.453202
vt 0.176767 0.453203
vt 0.176767 0.453203
vt 0.417686 0.008627
vt 0.417686 0.008627
vt 0.417686 0.008627
vt 0.417686 0.008627
vt 0.417686 0.008627
vt 0.417686 0.008627
vt 0.417686 0.008627
vt 0.417686 0.008627
vt 0.417686 0.008627
vt 0.417686 0.008627
vt 0.417686 0.008627
vt 0.085806 0.230022
vt 0.085806 0.230022
vt 0.085806 0.230022
vt 0.085806 0.230022
vt 0.085806 0.230022
vt 0.085806 0.230022
vn 0.000000 1.000000 0.000000
vn 0.000000 1.000000 0.000000
vn 0.000000 1.000000 -0.000000
vn 0.000000 1.000000 -0.000000
vn -0.866025 0.500001 0.000000
vn -0.866025 0.500001 0.000000
vn -0.866025 0.500001 -0.000000
vn -0.866025 0.500001 -0.000000
vn -0.866025 -0.500001 0.000000
vn -0.866025 -0.500001 0.000000
vn -0.866025 -0.500001 0.000000
vn -0.866025 -0.500001 0.000000
vn -0.000000 -1.000000 0.000000
vn -0.000000 -1.000000 0.000000
vn -0.000000 -1.000000 0.000000
vn -0.000000 -1.000000 0.000000
vn 0.866025 -0.500001 0.000000
vn 0.866025 -0.500001 0.000000
vn 0.866025 -0.500001 0.000000
vn 0.866025 -0.500001 0.000000
vn 0.866025 0.500001 0.000000
vn 0.866025 0.500001 0.000000
vn 0.866025 0.500001 0.000000
vn 0.866025 0.500001 0.000000
vn 0.000000 0.000000 -1.000000
vn -0.000001 0.000000 -1.000000
vn 0.000000 0.000000 -1.000000
vn 0.000001 0.000000 -1.000000
vn 0.000000 0.000000 -1.000000
vn 0.000000 0.000000 -1.000000
vn 0.000000 0.000000 -1.000000
vn 0.000001 0.000000 -1.000000
vn 0.000000 0.000000 -1.000000
vn 0.000000 0.000000 -1.000000
vn 0.000000 0.000000 -1.000000
vn 0.000000 0.000000 -1.000000
vn 0.000000 0.000000 -1.000000
vn 0.000000 0.000000 -1.000000
vn 0.000000 0.000000 -1.000000
vn -0.000001 0.000000 -1.000000
vn 0.000000 0.000000 -1.000000
vn 0.000000 0.000000 -1.000000
vn -0.000001 0.000000 1.000000
vn 0.000000 0.000000 1.000000
vn -0.000000 0.000000 1.000000
vn 0.000000 0.000000 1.000000
vn 0.000001 0.000000 1.000000
vn -0.000000 0.000000 1.000000
vn 0.000001 0.000000 1.000000
vn -0.000000 0.000000 1.000000
vn -0.000000 0.000000 1.000000
vn -0.000000 0.000000 1.000000
vn 0.000000 0.000000 1.000000
vn -0.000000 0.000000 1.000000
vn 0.000000 0.000000 1.000000
vn 0.000000 0.000000 1.000000
vn -0.000000 0.000000 1.000000
vn 0.000000 0.000000 1.000000
vn -0.000001 0.000000 1.000000
vn -0.000000 0.000000 1.000000
vn 0.866025 0.500001 0.000000
vn 0.866025 0.500001 0.000000
vn 0.866025 0.500001 0.000000
vn 0.866025 0.500001 0.000000
vn 0.000000 1.000000 0.000000
vn 0.000000 1.000000 0.000000
vn 0.000000 1.000000 0.000000
vn 0.000000 1.000000 0.000000
vn -0.866025 0.500001 0.000000
vn -0.866025 0.500001 0.000000
vn -0.866025 0.500001 0.000000
vn -0.866025 0.500001 0.000000
vn -0.866025 -0.500001 0.000000
vn -0.866025 -0.500001 0.000000
vn -0.866025 -0.500001 0.000000
vn -0.866025 -0.500001 0.000000
vn -0.000000 -1.000000 0.000000
vn -0.000000 -1.000000 0.000000
vn -0.000000 -1.000000 0.000000
vn -0.000000 -1.000000 0.000000
vn 0.866025 -0.500001 0.000000
vn 0.866025 -0.500001 0.000000
vn 0.866025 -0.500001 0.000000
vn 0.866025 -0.500001 0.000000
vn -0.866025 -0.500001 0.000000
vn -0.866025 -0.500001 0.000000
vn -0.866025 -0.500001 0.000000
vn -0.866025 -0.500001 0.000000
vn -0.866025 0.500001 -0.000000
vn -0.866025 0.500001 -0.000000
vn -0.866025 0.500001 -0.000000
vn -0.866025 0.500001 -0.000000
vn 0.000000 1.000000 -0.000000
vn 0.000000 1.000000 -0.000000
vn 0.000000 1.000000 -0.000000
vn 0.000000 1.000000 -0.000000
vn 0.866025 0.500001 0.000000
vn 0.866025 0.500001 0.000000
vn 0.866025 0.500001 0.000000
vn 0.866025 0.500001 0.000000
vn 0.866025 -0.500001 0.000000
vn 0.866025 -0.500001 0.000000
vn 0.866025 -0.500001 0.000000
vn 0.866025 -0.500001 0.000000
vn -0.000000 -1.000000 0.000000
vn -0.000000 -1.000000 0.000000
vn -0.000000 -1.000000 0.000000
vn -0.000000 -1.000000 0.000000
s off
f 16/28/1 17/34/2 23/35/3 24/36/4
f 17/34/5 18/37/6 22/38/7 23/35/8
f 18/37/9 19/39/10 21/40/11 22/38/12
f 19/39/13 20/41/14 26/42/15 21/40/16
f 20/41/17 15/43/18 25/44/19 26/42/20
f 15/43/21 16/28/22 24/36/23 25/44/24
f 2/1/25 1/2/26 13/3/27
f 3/4/28 2/1/29 13/3/30
f 4/5/31 3/4/32 13/3/33
f 5/6/34 4/5/35 13/3/36
f 6/27/37 5/6/38 13/3/39
f 1/2/40 6/27/41 13/3/42
f 7/16/43 8/45/44 14/46/45
f 8/45/46 9/47/47 14/46/48
f 9/47/49 10/48/50 14/46/51
f 10/48/52 11/49/53 14/46/54
f 11/49/55 12/50/56 14/46/57
f 12/50/58 7/16/59 14/46/60
f 6/7/61 1/8/62 16/9/63 15/10/64
f 1/8/65 2/11/66 17/12/67 16/9/68
f 2/11/69 3/13/70 18/29/71 17/12/72
f 3/13/73 4/30/74 19/31/75 18/29/76
f 4/30/77 5/32/78 20/33/79 19/31/80
f 5/32/81 6/7/82 15/10/83 20/33/84
f 22/21/85 21/22/86 10/18/87 9/17/88
f 23/23/89 22/21/90 9/17/91 8/15/92
f 24/24/93 23/23/94 8/15/95 7/14/96
f 25/25/97 24/24/98 7/14/99 12/20/100
f 26/26/101 25/25/102 12/20/103 11/19/104
f 21/22/105 26/26/106 11/19/107 10/18/108
