# This file uses centimeters as units for non-parametric coordinates.

v 0.874153 1.514077 -7.791190
v -0.874153 1.514077 -7.791190
v -1.748306 0.000000 -7.791190
v -0.874153 -1.514077 -7.791190
v 0.874153 -1.514077 -7.791190
v 1.748306 0.000000 -7.791190
v 0.874153 1.514077 5.608471
v -0.874153 1.514077 5.608471
v -1.748306 0.000000 5.608471
v -0.874153 -1.514077 5.608471
v 0.874153 -1.514077 5.608471
v 1.748306 -0.000000 5.608471
v 0.874153 1.514077 -8.385229
v -0.874153 1.514077 -8.385229
v -1.748306 0.000000 -8.385229
v -0.874153 -1.514077 -8.385229
v 0.874153 -1.514077 -8.385229
v 1.748306 0.000000 -8.385229
v 0.792306 1.372314 -10.682459
v -0.792306 1.372314 -10.682459
v -1.584612 0.000000 -10.682459
v -0.792306 -1.372314 -10.682459
v 0.792306 -1.372314 -10.682459
v 1.584612 0.000000 -10.682459
v 0.487794 0.844883 -10.682459
v -0.487793 0.844883 -10.682459
v -0.975587 0.000000 -10.682459
v -0.487794 -0.844883 -10.682459
v 0.487793 -0.844883 -10.682459
v 0.975587 0.000000 -10.682459
v 0.487794 0.844883 -12.786324
v -0.487793 0.844883 -12.786324
v 0.000000 0.000000 -12.786324
v -0.975587 0.000000 -12.786324
v -0.487794 -0.844883 -12.786324
v 0.487793 -0.844883 -12.786324
v 0.975587 0.000000 -12.786324
v 0.874153 1.514077 7.827137
v -0.874153 1.514077 7.827137
v -1.748306 0.000000 6.592252
v -0.874153 -1.514077 7.827137
v 0.874153 -1.514077 7.827137
v 1.748306 -0.000000 6.592252
v 0.874153 1.514077 15.534233
v -0.874153 1.514077 15.534233
v -1.748306 0.000000 15.534233
v -0.874153 -1.514077 15.534233
v 0.874153 -1.514077 15.534233
v 1.748306 -0.000000 15.534233
v 0.173144 0.299894 20.347528
v -0.173144 0.299894 20.347528
v 0.000000 -0.000000 20.347528
v -0.346288 0.000000 20.347528
v -0.173144 -0.299894 20.347528
v 0.173144 -0.299894 20.347528
v 0.346288 -0.000000 20.347528
v 2.012111 -0.000000 11.500114
v 1.006056 1.742539 11.500114
v -1.006055 1.742539 11.500114
v -2.012111 0.000000 11.500114
v -1.006056 -1.742539 11.500114
v 1.006055 -1.742539 11.500114
v -0.874153 1.514077 2.583646
v 0.874153 1.514077 2.583646
v 0.874153 2.086758 -7.791190
v -0.874153 2.086758 -7.791190
v -0.874153 2.086758 2.051076
v 0.874153 2.086758 2.051076
v -0.874153 2.689067 -5.941077
v 0.874153 2.689067 -5.941077
v -0.874153 2.086758 -2.211285
v 0.874153 2.086758 -2.211285
vt 0.135261 0.304542
vt 0.135261 0.304542
vt 0.135261 0.304542
vt 0.135261 0.304542
vt 0.135261 0.304542
vt 0.135261 0.304542
vt 0.145815 0.421351
vt 0.145815 0.421351
vt 0.145815 0.421351
vt 0.145815 0.421351
vt 0.145815 0.421351
vt 0.145815 0.421351
vt 0.145815 0.421351
vt 0.145815 0.421351
vt 0.145815 0.421351
vt 0.145815 0.421351
vt 0.145815 0.421351
vt 0.145815 0.421351
vt 0.079257 0.278540
vt 0.079257 0.278540
vt 0.135261 0.304542
vt 0.135261 0.304542
vt 0.135261 0.304542
vt 0.135261 0.304542
vt 0.135261 0.304542
vt 0.135261 0.304542
vt 0.135261 0.304542
vt 0.081246 0.229004
vt 0.135261 0.304542
vt 0.135261 0.304542
vt 0.135261 0.304542
vt 0.135261 0.304542
vt 0.135261 0.304542
vt 0.135261 0.304542
vt 0.079257 0.278540
vt 0.079257 0.278540
vt 0.079257 0.278540
vt 0.079257 0.278540
vt 0.079257 0.278540
vt 0.079257 0.278540
vt 0.135261 0.304542
vt 0.135261 0.304542
vt 0.135261 0.304542
vt 0.135261 0.304542
vt 0.135261 0.304542
vt 0.135261 0.304542
vt 0.135261 0.304542
vt 0.135261 0.304542
vt 0.135261 0.304542
vt 0.135261 0.304542
vt 0.135261 0.304542
vt 0.135261 0.304542
vt 0.135261 0.304542
vt 0.135261 0.304542
vt 0.135261 0.304542
vt 0.135261 0.304542
vt 0.135261 0.304542
vt 0.135261 0.304542
vt 0.135261 0.304542
vt 0.135261 0.304542
vt 0.135261 0.304542
vt 0.135261 0.304542
vt 0.135261 0.304542
vt 0.135261 0.304542
vt 0.135261 0.304542
vt 0.135261 0.304542
vt 0.135261 0.304542
vt 0.135261 0.304542
vt 0.135261 0.304542
vt 0.135261 0.304542
vt 0.079257 0.278540
vt 0.079257 0.278540
vt 0.079257 0.278540
vt 0.079257 0.278540
vt 0.079257 0.278540
vt 0.079257 0.278540
vt 0.079257 0.278540
vt 0.079257 0.278540
vt 0.079257 0.278540
vt 0.079257 0.278540
vt 0.079257 0.278540
vt 0.079257 0.278540
vt 0.079257 0.278540
vt 0.079257 0.278540
vt 0.079257 0.278540
vt 0.079257 0.278540
vt 0.079257 0.278540
vt 0.079257 0.278540
vt 0.079257 0.278540
vt 0.079257 0.278540
vt 0.079257 0.278540
vt 0.079257 0.278540
vt 0.079257 0.278540
vt 0.079257 0.278540
vt 0.079257 0.278540
vt 0.079257 0.278540
vt 0.079257 0.278540
vt 0.079257 0.278540
vt 0.081246 0.229004
vt 0.081246 0.229004
vt 0.081246 0.229004
vt 0.081246 0.229004
vt 0.081246 0.229004
vt 0.081246 0.229004
vt 0.145815 0.421351
vt 0.145815 0.421351
vt 0.135261 0.304542
vt 0.135261 0.304542
vt 0.135261 0.304542
vt 0.135261 0.304542
vt 0.135261 0.304542
vt 0.135261 0.304542
vt 0.135261 0.304542
vt 0.135261 0.304542
vt 0.135261 0.304542
vt 0.135261 0.304542
vt 0.135261 0.304542
vt 0.135261 0.304542
vt 0.135261 0.304542
vt 0.135261 0.304542
vn 0.000000 0.950880 -0.309561
vn 0.000000 0.950880 -0.309561
vn 0.000000 1.000000 0.000000
vn 0.000000 1.000000 0.000000
vn -0.866025 0.500000 0.000000
vn -0.866025 0.500000 0.000000
vn -0.866025 0.500000 0.000000
vn -0.866026 -0.500000 0.000000
vn -0.866026 -0.500000 0.000000
vn -0.866026 -0.500000 0.000000
vn -0.866026 -0.500000 0.000000
vn 0.000000 -1.000000 0.000000
vn 0.000000 -1.000000 0.000000
vn 0.000000 -1.000000 0.000000
vn 0.000000 -1.000000 0.000000
vn 0.866026 -0.500000 0.000000
vn 0.866026 -0.500000 0.000000
vn 0.866026 -0.500000 0.000000
vn 0.866026 -0.500000 0.000000
vn 0.866026 0.500000 0.000000
vn 0.866026 0.500000 0.000000
vn 0.866026 0.500000 0.000000
vn -0.000000 0.000000 -1.000000
vn 0.000000 0.000000 -1.000000
vn 0.000000 0.000000 -1.000000
vn 0.000001 0.000000 -1.000000
vn -0.000000 0.000000 -1.000000
vn 0.000000 0.000000 -1.000000
vn 0.000001 0.000000 -1.000000
vn 0.000001 0.000000 -1.000000
vn 0.000000 0.000000 -1.000000
vn 0.000000 0.000000 -1.000000
vn 0.000001 0.000000 -1.000000
vn 0.000000 0.000000 -1.000000
vn 0.000000 0.000000 -1.000000
vn 0.000000 0.000000 -1.000000
vn 0.000000 0.000000 -1.000000
vn 0.000000 0.000000 -1.000000
vn 0.000000 0.000000 -1.000000
vn 0.000000 0.000000 -1.000000
vn 0.000000 0.000000 1.000000
vn 0.000000 0.000000 1.000000
vn 0.000001 0.000000 1.000000
vn 0.000000 0.000000 1.000000
vn 0.000004 0.000000 1.000000
vn 0.000001 0.000000 1.000000
vn 0.000004 0.000000 1.000000
vn 0.000004 0.000000 1.000000
vn 0.000001 0.000000 1.000000
vn 0.000004 0.000000 1.000000
vn 0.000000 0.000000 1.000000
vn 0.000001 0.000000 1.000000
vn 0.000000 0.000000 1.000000
vn 0.000000 0.000000 1.000000
vn 0.000001 0.000000 1.000000
vn 0.000000 0.000000 1.000000
vn 0.000000 0.000000 1.000000
vn 0.000001 0.000000 1.000000
vn 0.000000 0.719931 -0.694046
vn 0.000000 0.719931 -0.694046
vn 0.000000 0.719931 -0.694046
vn 0.000000 0.719931 -0.694046
vn -0.866025 0.500000 0.000000
vn -0.866025 0.500000 0.000000
vn -0.866025 0.500000 0.000000
vn -0.866025 0.500000 0.000000
vn -0.866026 -0.499999 0.000000
vn -0.866026 -0.499999 0.000000
vn -0.866026 -0.499999 0.000000
vn -0.866026 -0.499999 0.000000
vn 0.000000 -1.000000 0.000000
vn 0.000000 -1.000000 0.000000
vn 0.000000 -1.000000 0.000000
vn 0.000000 -1.000000 0.000000
vn 0.866025 -0.500000 0.000000
vn 0.866025 -0.500000 0.000000
vn 0.866025 -0.500000 0.000000
vn 0.866025 -0.500000 0.000000
vn 0.866026 0.500000 0.000000
vn 0.866026 0.500000 0.000000
vn 0.866026 0.500000 0.000000
vn 0.866026 0.500000 0.000000
vn 0.000000 0.998101 -0.061593
vn 0.000000 0.998101 -0.061593
vn 0.000000 0.998101 -0.061593
vn 0.000000 0.998101 -0.061593
vn -0.864381 0.499051 -0.061593
vn -0.864381 0.499051 -0.061593
vn -0.864381 0.499051 -0.061593
vn -0.864381 0.499051 -0.061593
vn -0.864381 -0.499050 -0.061593
vn -0.864381 -0.499050 -0.061593
vn -0.864381 -0.499050 -0.061593
vn -0.864381 -0.499050 -0.061593
vn 0.000000 -0.998101 -0.061593
vn 0.000000 -0.998101 -0.061593
vn 0.000000 -0.998101 -0.061593
vn 0.000000 -0.998101 -0.061593
vn 0.864381 -0.499051 -0.061593
vn 0.864381 -0.499051 -0.061593
vn 0.864381 -0.499051 -0.061593
vn 0.864381 -0.499051 -0.061593
vn 0.864381 0.499050 -0.061593
vn 0.864381 0.499050 -0.061593
vn 0.864381 0.499050 -0.061593
vn 0.864381 0.499050 -0.061593
vn 0.000000 0.000000 -1.000000
vn 0.000000 0.000000 -1.000000
vn 0.000000 0.000000 -1.000000
vn 0.000000 0.000000 -1.000000
vn 0.000001 0.000000 -1.000000
vn 0.000001 0.000000 -1.000000
vn 0.000001 0.000000 -1.000000
vn 0.000001 0.000000 -1.000000
vn 0.000000 0.000000 -1.000000
vn 0.000000 0.000000 -1.000000
vn 0.000000 0.000000 -1.000000
vn 0.000000 0.000000 -1.000000
vn 0.000000 0.000000 -1.000000
vn 0.000000 0.000000 -1.000000
vn 0.000000 0.000000 -1.000000
vn 0.000000 0.000000 -1.000000
vn -0.000002 0.000000 -1.000000
vn -0.000002 0.000000 -1.000000
vn -0.000002 0.000000 -1.000000
vn -0.000002 0.000000 -1.000000
vn -0.000001 0.000000 -1.000000
vn -0.000001 0.000000 -1.000000
vn -0.000001 0.000000 -1.000000
vn -0.000001 0.000000 -1.000000
vn 0.000000 1.000000 0.000000
vn 0.000000 1.000000 0.000000
vn 0.000000 1.000000 0.000000
vn 0.000000 1.000000 0.000000
vn -0.866026 0.500000 0.000000
vn -0.866026 0.500000 0.000000
vn -0.866026 0.500000 0.000000
vn -0.866026 0.500000 0.000000
vn -0.866026 -0.500000 0.000000
vn -0.866026 -0.500000 0.000000
vn -0.866026 -0.500000 0.000000
vn -0.866026 -0.500000 0.000000
vn 0.000000 -1.000000 0.000000
vn 0.000000 -1.000000 0.000000
vn 0.000000 -1.000000 0.000000
vn 0.000000 -1.000000 0.000000
vn 0.866025 -0.500000 0.000000
vn 0.866025 -0.500000 0.000000
vn 0.866025 -0.500000 0.000000
vn 0.866025 -0.500000 0.000000
vn 0.866026 0.500000 0.000000
vn 0.866026 0.500000 0.000000
vn 0.866026 0.500000 0.000000
vn 0.866026 0.500000 0.000000
vn 0.000000 1.000000 0.000000
vn 0.000000 1.000000 0.000000
vn 0.000000 1.000000 0.000000
vn 0.000000 1.000000 0.000000
vn -0.866025 0.500000 0.000000
vn -0.866025 0.500000 0.000000
vn -0.866025 0.500000 0.000000
vn -0.866025 0.500000 0.000000
vn -0.866026 -0.500000 0.000000
vn -0.866026 -0.500000 0.000000
vn -0.866026 -0.500000 0.000000
vn -0.866026 -0.500000 0.000000
vn 0.000000 -1.000000 0.000000
vn 0.000000 -1.000000 0.000000
vn 0.000000 -1.000000 0.000000
vn 0.000000 -1.000000 0.000000
vn 0.866025 -0.500000 0.000000
vn 0.866025 -0.500000 0.000000
vn 0.866025 -0.500000 0.000000
vn 0.866026 -0.500000 0.000000
vn 0.866026 0.500000 0.000000
vn 0.866026 0.500000 0.000000
vn 0.866026 0.500000 0.000000
vn 0.866026 0.500000 0.000000
vn 0.000000 1.000000 0.000062
vn 0.000000 1.000000 0.000062
vn 0.000000 0.998400 0.056542
vn 0.000000 0.998400 0.056542
vn -0.861489 0.507777 0.000057
vn -0.861476 0.507799 -0.000103
vn -0.864640 0.499200 0.056542
vn -0.864640 0.499200 0.056542
vn -0.861476 -0.507798 -0.000103
vn -0.861489 -0.507776 0.000057
vn -0.864640 -0.499200 0.056542
vn -0.864640 -0.499200 0.056542
vn 0.000000 -1.000000 0.000062
vn 0.000000 -1.000000 0.000062
vn 0.000000 -0.998400 0.056542
vn 0.000000 -0.998400 0.056542
vn 0.861489 -0.507777 0.000057
vn 0.861476 -0.507798 -0.000103
vn 0.864640 -0.499200 0.056542
vn 0.864640 -0.499200 0.056542
vn 0.861476 0.507798 -0.000103
vn 0.861489 0.507776 0.000057
vn 0.864640 0.499200 0.056542
vn 0.864640 0.499200 0.056542
vn 0.000000 0.969626 0.244594
vn 0.000000 0.969626 0.244594
vn 0.000000 0.969626 0.244594
vn 0.000000 0.969626 0.244594
vn -0.839720 0.484813 0.244594
vn -0.839720 0.484813 0.244594
vn -0.839720 0.484813 0.244594
vn -0.839720 0.484813 0.244594
vn -0.839721 -0.484812 0.244594
vn -0.839721 -0.484812 0.244594
vn -0.839721 -0.484812 0.244594
vn -0.839721 -0.484812 0.244594
vn 0.000000 -0.969626 0.244594
vn 0.000000 -0.969626 0.244594
vn 0.000000 -0.969626 0.244594
vn 0.000000 -0.969626 0.244594
vn 0.839720 -0.484813 0.244594
vn 0.839720 -0.484813 0.244594
vn 0.839720 -0.484813 0.244594
vn 0.839720 -0.484813 0.244594
vn 0.839721 0.484812 0.244594
vn 0.839721 0.484812 0.244594
vn 0.839721 0.484812 0.244594
vn 0.839721 0.484813 0.244594
vn 0.855939 0.514336 -0.053166
vn 0.855939 0.514336 -0.053166
vn 0.861489 0.507776 0.000057
vn 0.861476 0.507798 -0.000103
vn 0.000000 0.998071 -0.062081
vn 0.000000 0.998071 -0.062081
vn 0.000000 1.000000 0.000062
vn 0.000000 1.000000 0.000062
vn -0.855939 0.514337 -0.053166
vn -0.855939 0.514337 -0.053166
vn -0.861476 0.507799 -0.000103
vn -0.861489 0.507777 0.000057
vn -0.855939 -0.514336 -0.053166
vn -0.855939 -0.514336 -0.053166
vn -0.861489 -0.507776 0.000057
vn -0.861476 -0.507798 -0.000103
vn 0.000000 -0.998071 -0.062081
vn 0.000000 -0.998071 -0.062081
vn 0.000000 -1.000000 0.000062
vn 0.000000 -1.000000 0.000062
vn 0.855939 -0.514337 -0.053166
vn 0.855939 -0.514337 -0.053166
vn 0.861476 -0.507798 -0.000103
vn 0.861489 -0.507777 0.000057
vn -0.866025 0.500000 0.000000
vn -0.866025 0.500000 0.000000
vn -0.866025 0.500000 0.000000
vn -0.866025 0.500000 0.000000
vn 0.000000 1.000000 0.000000
vn 0.000000 1.000000 0.000000
vn 0.000000 1.000000 0.000000
vn 0.000000 1.000000 0.000000
vn 0.866026 0.500000 0.000000
vn 0.866026 0.500000 0.000000
vn 0.866026 0.500000 0.000000
vn 0.866026 0.500000 0.000000
vn -1.000000 0.000000 0.000000
vn -1.000000 0.000000 0.000000
vn -1.000000 0.000000 0.000000
vn 0.000000 0.680997 0.732287
vn 0.000000 0.680997 0.732287
vn 0.000000 0.680997 0.732287
vn 0.000000 0.680997 0.732287
vn 1.000000 0.000000 0.000000
vn 1.000000 0.000000 0.000000
vn 1.000000 0.000000 0.000000
vn 1.000000 0.000000 0.000000
vn 1.000000 0.000000 0.000000
vn 1.000000 0.000000 0.000000
vn -1.000000 0.000000 0.000000
vn -1.000000 0.000000 0.000000
vn -1.000000 0.000000 0.000000
vn -1.000000 0.000000 0.000000
vn -1.000000 -0.000000 0.000000
vn -1.000000 0.000000 0.000000
vn -1.000000 0.000000 0.000000
vn 0.000000 1.000000 0.000000
vn 0.000000 1.000000 0.000000
vn 0.000000 0.997172 0.075149
vn 0.000000 0.997172 0.075149
vn 1.000000 -0.000000 0.000000
vn 1.000000 0.000000 0.000000
vn 1.000000 0.000000 0.000000
vn 1.000000 0.000000 0.000000
vn -1.000000 0.000000 0.000000
vn -1.000000 -0.000000 0.000000
vn -1.000000 -0.000001 0.000000
vn 0.000000 0.997172 0.075149
vn 0.000000 0.997172 0.075149
vn 0.000000 1.000000 0.000000
vn 0.000000 1.000000 0.000000
vn 1.000000 -0.000000 0.000000
vn 1.000000 0.000000 0.000000
vn 1.000000 -0.000000 0.000000
s off
f 65/107/1 66/108/2 69/117/3 70/118/4
f 2/8/5 3/11/6 63/105/7
f 3/11/8 4/13/9 10/14/10 9/12/11
f 4/13/12 5/15/13 11/16/14 10/14/15
f 5/15/16 6/17/17 12/18/18 11/16/19
f 6/17/20 1/7/21 64/106/22
f 32/47/23 31/48/24 33/27/25
f 34/49/26 32/47/27 33/27/28
f 35/50/29 34/49/30 33/27/31
f 36/51/32 35/50/33 33/27/34
f 37/52/35 36/51/36 33/27/37
f 31/48/38 37/52/39 33/27/40
f 50/28/41 51/99/42 52/100/43
f 51/99/44 53/101/45 52/100/46
f 53/101/47 54/102/48 52/100/49
f 54/102/50 55/103/51 52/100/52
f 55/103/53 56/104/54 52/100/55
f 56/104/56 50/28/57 52/100/58
f 66/108/59 65/107/60 13/111/61 14/112/62
f 3/3/63 2/2/64 14/29/65 15/31/66
f 4/4/67 3/3/68 15/31/69 16/32/70
f 5/5/71 4/4/72 16/32/73 17/33/74
f 6/6/75 5/5/76 17/33/77 18/34/78
f 1/1/79 6/6/80 18/34/81 13/30/82
f 14/35/83 13/36/84 19/37/85 20/38/86
f 15/39/87 14/35/88 20/38/89 21/40/90
f 16/83/91 15/39/92 21/40/93 22/84/94
f 17/85/95 16/83/96 22/84/97 23/86/98
f 18/87/99 17/85/100 23/86/101 24/88/102
f 13/36/103 18/87/104 24/88/105 19/37/106
f 20/38/107 19/37/108 25/89/109 26/90/110
f 21/40/111 20/38/112 26/90/113 27/91/114
f 22/84/115 21/40/116 27/91/117 28/92/118
f 23/86/119 22/84/120 28/92/121 29/20/122
f 24/88/123 23/86/124 29/20/125 30/19/126
f 19/37/127 24/88/128 30/19/129 25/89/130
f 26/41/131 25/42/132 31/48/133 32/47/134
f 27/43/135 26/41/136 32/47/137 34/49/138
f 28/44/139 27/43/140 34/49/141 35/50/142
f 29/45/143 28/44/144 35/50/145 36/51/146
f 30/46/147 29/45/148 36/51/149 37/52/150
f 25/42/151 30/46/152 37/52/153 31/48/154
f 7/25/155 8/24/156 39/54/157 38/53/158
f 8/24/159 9/23/160 40/55/161 39/54/162
f 9/23/163 10/22/164 41/56/165 40/55/166
f 10/22/167 11/21/168 42/57/169 41/56/170
f 11/21/171 12/26/172 43/58/173 42/57/174
f 12/26/175 7/25/176 38/53/177 43/58/178
f 58/94/179 59/95/180 45/73/181 44/74/182
f 59/95/183 60/96/184 46/76/185 45/73/186
f 60/96/187 61/97/188 47/78/189 46/76/190
f 61/97/191 62/98/192 48/80/193 47/78/194
f 62/98/195 57/93/196 49/82/197 48/80/198
f 57/93/199 58/94/200 44/74/201 49/82/202
f 44/59/203 45/60/204 51/66/205 50/65/206
f 45/60/207 46/61/208 53/67/209 51/66/210
f 46/61/211 47/62/212 54/68/213 53/67/214
f 47/62/215 48/63/216 55/69/217 54/68/218
f 48/63/219 49/64/220 56/70/221 55/69/222
f 49/64/223 44/59/224 50/65/225 56/70/226
f 43/81/227 38/71/228 58/94/229 57/93/230
f 38/71/231 39/72/232 59/95/233 58/94/234
f 39/72/235 40/75/236 60/96/237 59/95/238
f 40/75/239 41/77/240 61/97/241 60/96/242
f 41/77/243 42/79/244 62/98/245 61/97/246
f 42/79/247 43/81/248 57/93/249 62/98/250
f 63/105/251 3/11/252 9/12/253 8/9/254
f 64/106/255 63/105/256 8/9/257 7/10/258
f 6/17/259 64/106/260 7/10/261 12/18/262
f 2/113/263 69/117/264 66/108/265
f 63/114/266 64/115/267 68/110/268 67/109/269
f 70/118/270 1/116/271 65/107/272
f 1/116/273 13/111/274 65/107/275
f 14/112/276 2/113/277 66/108/278
f 2/113/279 63/114/280 71/119/281 69/117/282
f 70/118/283 69/117/284 71/119/285 72/120/286
f 64/115/287 1/116/288 70/118/289 72/120/290
f 71/119/291 63/114/292 67/109/293
f 72/120/294 71/119/295 67/109/296 68/110/297
f 64/115/298 72/120/299 68/110/300
