# This file uses centimeters as units for non-parametric coordinates.

v -7.134158 0.000000 5.000000
v 7.134158 0.000000 5.000000
v -7.134158 0.000000 -5.000000
v 7.134158 0.000000 -5.000000
v 7.941549 0.000000 -4.191590
v 7.941549 0.000000 4.191590
v -7.941549 0.000000 4.191590
v -7.941549 0.000000 -4.191590
v 7.134158 0.000000 0.000000
v -7.134158 0.000000 -4.000000
v 7.134158 0.000000 -4.000000
v -5.707326 0.000000 0.000000
v -5.707326 0.000000 4.000000
v -7.134158 0.000000 4.000000
v -5.707326 0.000000 -4.000000
v -7.134158 0.000000 5.000000
v 7.134158 0.000000 5.000000
v -7.134158 0.902729 5.000000
v 7.134158 0.902729 5.000000
v -7.134158 0.902729 -5.000000
v 7.134158 0.902729 -5.000000
v -7.134158 0.000000 -5.000000
v 7.134158 0.000000 -5.000000
v 7.941549 0.000000 -4.191590
v 7.941549 0.000000 4.191590
v 7.941549 0.902729 -4.191590
v 7.941549 0.902729 4.191590
v -7.941549 0.000000 -4.191590
v -7.941549 0.000000 4.191590
v -7.941549 0.902729 4.191590
v -7.941549 0.902729 -4.191590
v 7.134158 0.902729 0.000000
v -7.134158 0.902729 -4.000000
v 7.134158 0.902729 -4.000000
v -5.707326 0.902729 0.000000
v -5.707326 0.902729 4.000000
v -7.134158 0.902729 4.000000
v -5.707326 0.902729 -4.000000
vt 0.495345 0.053585
vt 0.495345 0.053585
vt 0.495345 0.053585
vt 0.495345 0.053585
vt 0.495345 0.053585
vt 0.495345 0.053585
vt 0.495345 0.053585
vt 0.495345 0.053585
vt 0.495345 0.053585
vt 0.495345 0.053585
vt 0.495345 0.053585
vt 0.317669 0.040522
vt 0.495345 0.053585
vt 0.495345 0.053585
vt 0.495345 0.053585
vt 0.495345 0.053585
vt 0.495345 0.053585
vt 0.341359 0.446300
vt 0.341359 0.446300
vt 0.079866 0.228620
vt 0.317669 0.105244
vt 0.341359 0.446300
vt 0.495977 0.105244
vt 0.495977 0.040522
vt 0.079866 0.228620
vt 0.495977 0.053466
vt 0.079866 0.228620
vt 0.495345 0.053585
vt 0.079866 0.228620
vt 0.495344 0.053585
vt 0.495345 0.053585
vt 0.495345 0.053585
vt 0.341359 0.446300
vt 0.079866 0.228620
vt 0.079866 0.228620
vt 0.495345 0.053585
vt 0.495345 0.053585
vt 0.495345 0.053585
vt 0.495345 0.053585
vt 0.495345 0.053585
vt 0.495345 0.053585
vt 0.495345 0.053585
vt 0.495345 0.053585
vt 0.495345 0.053585
vt 0.495345 0.053585
vt 0.495345 0.053585
vt 0.495345 0.053585
vt 0.495345 0.053585
vt 0.495345 0.053585
vt 0.495345 0.053585
vt 0.495345 0.053585
vt 0.495345 0.053585
vt 0.495345 0.053585
vt 0.495345 0.053585
vt 0.495345 0.053585
vt 0.495345 0.053585
vt 0.495345 0.053585
vt 0.495345 0.053585
vt 0.495345 0.053585
vt 0.317669 0.105244
vt 0.317669 0.053466
vt 0.495977 0.040522
vt 0.495977 0.105244
vt 0.495345 0.053585
vt 0.079866 0.228620
vt 0.079866 0.228620
vt 0.079866 0.228620
vt 0.495345 0.053585
vt 0.495345 0.053585
vt 0.495344 0.053585
vt 0.495345 0.053585
vt 0.079866 0.228620
vt 0.079866 0.228620
vt 0.079866 0.228620
vt 0.317669 0.040522
vt 0.341359 0.446300
vt 0.341359 0.446300
vt 0.341359 0.446300
vt 0.341359 0.446300
vt 0.495345 0.053585
vn 0.000000 -1.000000 0.000000
vn 0.000000 -1.000000 0.000000
vn 0.000000 -1.000000 0.000000
vn 0.000000 -1.000000 0.000000
vn 0.000000 -1.000000 0.000000
vn 0.000000 -1.000000 0.000000
vn 0.000000 -1.000000 0.000000
vn 0.000000 -1.000000 0.000000
vn 0.000000 -1.000000 0.000000
vn 0.000000 -1.000000 0.000000
vn 0.000000 -1.000000 0.000000
vn 0.000000 -1.000000 0.000000
vn 0.000000 -1.000000 0.000000
vn 0.000000 -1.000000 0.000000
vn 0.000000 -1.000000 0.000000
vn 0.000000 -1.000000 0.000000
vn 0.000000 -1.000000 0.000000
vn 0.000000 -1.000000 0.000000
vn 0.000000 -1.000000 0.000000
vn 0.000000 -1.000000 0.000000
vn 0.000000 -1.000000 0.000000
vn 0.000000 -1.000000 0.000000
vn 0.000000 -1.000000 0.000000
vn 0.000000 -1.000000 0.000000
vn 0.000000 -1.000000 0.000000
vn 0.000000 -1.000000 0.000000
vn 0.000000 -1.000000 0.000000
vn 0.000000 -1.000000 0.000000
vn 0.000000 -1.000000 0.000000
vn 0.000000 -1.000000 0.000000
vn 0.000000 -1.000000 0.000000
vn 0.000000 -1.000000 0.000000
vn 0.000000 -1.000000 0.000000
vn 0.000000 -1.000000 0.000000
vn 0.000000 -1.000000 0.000000
vn 0.000000 -1.000000 0.000000
vn 0.000000 -1.000000 0.000000
vn 0.000000 -1.000000 0.000000
vn 0.000000 -1.000000 0.000000
vn 0.000000 -1.000000 0.000000
vn 0.000000 -1.000000 0.000000
vn 0.000000 -1.000000 0.000000
vn 0.000000 -1.000000 0.000000
vn 0.000000 -1.000000 0.000000
vn 0.000000 -1.000000 0.000000
vn 0.000000 -1.000000 0.000000
vn 0.000000 -1.000000 0.000000
vn 0.000000 -1.000000 0.000000
vn 0.000000 0.000000 1.000000
vn 0.000000 0.000000 1.000000
vn 0.000000 0.000000 1.000000
vn 0.000000 0.000000 1.000000
vn 0.000000 1.000000 0.000000
vn 0.000000 1.000000 0.000000
vn 0.000000 1.000000 0.000000
vn 0.000000 0.000000 -1.000000
vn 0.000000 0.000000 -1.000000
vn 0.000000 0.000000 -1.000000
vn 0.000000 0.000000 -1.000000
vn 1.000000 0.000000 0.000000
vn 1.000000 0.000000 0.000000
vn 1.000000 0.000000 0.000000
vn 1.000000 0.000000 0.000000
vn -1.000000 0.000000 0.000000
vn -1.000000 0.000000 0.000000
vn -1.000000 0.000000 0.000000
vn -1.000000 0.000000 0.000000
vn 0.707552 0.000000 -0.706661
vn 0.707552 0.000000 -0.706661
vn 0.707552 0.000000 -0.706661
vn 0.707552 0.000000 -0.706661
vn 0.000000 1.000000 0.000000
vn 0.000000 1.000000 0.000000
vn 0.000000 1.000000 0.000000
vn 0.707552 0.000000 0.706661
vn 0.707552 0.000000 0.706661
vn 0.707552 0.000000 0.706661
vn 0.707552 0.000000 0.706661
vn -0.707552 0.000000 0.706661
vn -0.707552 0.000000 0.706661
vn -0.707552 0.000000 0.706661
vn -0.707552 0.000000 0.706661
vn 0.000000 1.000000 0.000000
vn 0.000000 1.000000 0.000000
vn 0.000000 1.000000 0.000000
vn -0.707552 0.000000 -0.706661
vn -0.707552 0.000000 -0.706661
vn -0.707552 0.000000 -0.706661
vn -0.707552 0.000000 -0.706661
vn 0.000000 1.000000 0.000000
vn 0.000000 1.000000 0.000000
vn 0.000000 1.000000 0.000000
vn 0.000000 1.000000 0.000000
vn 0.000000 1.000000 0.000000
vn 0.000000 1.000000 0.000000
vn 0.000000 1.000000 0.000000
vn 0.000000 1.000000 0.000000
vn 0.000000 1.000000 0.000000
vn 0.000000 1.000000 0.000000
vn 0.000000 1.000000 0.000000
vn 0.000000 1.000000 0.000000
vn 0.000000 1.000000 0.000000
vn 0.000000 1.000000 0.000000
vn 0.000000 1.000000 0.000000
vn 0.000000 1.000000 0.000000
vn 0.000000 1.000000 0.000000
vn 0.000000 1.000000 0.000000
vn 0.000000 1.000000 0.000000
vn 0.000000 1.000000 0.000000
vn 0.000000 1.000000 0.000000
vn 0.000000 1.000000 0.000000
vn 0.000000 1.000000 0.000000
vn 0.000000 1.000000 0.000000
vn 0.000000 1.000000 0.000000
vn 0.000000 1.000000 0.000000
vn 0.000000 1.000000 0.000000
vn 0.000000 1.000000 0.000000
vn 0.000000 1.000000 0.000000
vn 0.000000 1.000000 0.000000
vn 0.000000 1.000000 0.000000
vn 0.000000 1.000000 0.000000
vn 0.000000 1.000000 0.000000
vn 0.000000 1.000000 0.000000
vn 0.000000 1.000000 0.000000
vn 0.000000 1.000000 0.000000
vn 0.000000 1.000000 0.000000
vn 0.000000 1.000000 0.000000
vn 0.000000 1.000000 0.000000
s off
f 10/15/1 3/3/2 15/32/3
f 4/5/4 5/7/5 11/17/6
f 8/10/7 3/6/8 10/14/9
f 12/23/10 9/21/11 2/12/12 13/26/13
f 1/1/14 7/9/15 14/28/16
f 10/35/17 15/34/18 12/20/19
f 5/7/20 6/8/21 2/2/22 9/13/23 11/17/24
f 1/11/25 14/31/26 13/30/27
f 14/29/28 12/25/29 13/27/30
f 7/9/31 8/10/32 10/14/33 14/28/34
f 2/12/35 1/24/36 13/26/37
f 15/33/38 11/19/39 9/18/40 12/22/41
f 3/3/42 4/4/43 11/16/44 15/32/45
f 12/20/46 14/29/47 10/35/48
f 16/36/49 17/37/50 19/38/51 18/39/52
f 33/40/53 38/41/54 20/42/55
f 20/42/56 21/43/57 23/44/58 22/45/59
f 25/46/60 24/47/61 26/48/62 27/49/63
f 28/50/64 29/51/65 30/52/66 31/53/67
f 23/54/68 21/55/69 26/48/70 24/47/71
f 21/55/72 34/56/73 26/48/74
f 19/38/75 17/37/76 25/46/77 27/49/78
f 16/36/79 18/39/80 30/52/81 29/51/82
f 31/53/83 33/57/84 20/58/85
f 20/58/86 22/59/87 28/50/88 31/53/89
f 35/60/90 36/61/91 19/62/92 32/63/93
f 18/39/94 37/64/95 30/52/96
f 33/65/97 35/66/98 38/67/99
f 26/48/100 34/56/101 32/68/102 19/38/103 27/49/104
f 18/69/105 36/70/106 37/71/107
f 37/72/108 36/73/109 35/74/110
f 30/52/111 37/64/112 33/57/113 31/53/114
f 19/62/115 36/61/116 18/75/117
f 38/76/118 35/77/119 32/78/120 34/79/121
f 20/42/122 38/41/123 34/80/124 21/43/125
f 35/66/126 33/65/127 37/72/128
